<svg width="79" height="78" viewBox="0 0 79 78" fill="none" xmlns="http://www.w3.org/2000/svg">
<path d="M41.7246 2.15332C44.5668 1.68705 46.9078 2.75635 47.9918 3.38844C48.396 3.62414 48.9088 3.65175 49.3515 3.50026C50.3324 3.16458 52.217 2.84421 54.2852 4.2002C55.6327 5.08374 56.2603 6.01991 56.5424 6.78543C56.8187 7.53515 57.5767 8.36091 58.3711 8.4458C60.2337 8.64481 63.2953 9.49288 65.5986 12.7129C67.468 15.3263 67.5662 17.8345 67.2412 19.622C67.0592 20.6233 68.1389 22.3724 68.887 23.0623C69.2848 23.429 69.676 23.9466 70.0166 24.6738C70.7274 26.1916 70.8568 27.3182 70.8098 28.063C70.7702 28.6897 70.9783 29.4429 71.4042 29.9043C72.1858 30.751 73.2086 32.3719 73.1416 35.0176C73.079 37.4866 72.2128 38.87 71.4977 39.5958C71.0427 40.0577 70.7606 40.8076 70.8417 41.4509C70.9778 42.5295 70.8521 44.252 69.3701 46.1162C68.3173 47.4405 67.1878 47.9745 66.2386 48.1515C65.3222 48.3225 64.2169 49.3069 64.082 50.2294C63.9334 51.2459 63.4903 52.402 62.3662 53.2285C60.675 54.472 58.6584 54.2585 57.5481 53.9974C57.0459 53.8793 56.4978 54.0365 56.1684 54.4335C54.0954 56.932 52.0698 57.7211 47.3279 57.345C47.1568 57.3314 46.9889 57.2775 46.8415 57.1893L42.2465 54.4411C41.9206 54.2461 41.5186 54.2275 41.1761 54.3916L33.8329 57.908C33.7474 57.949 33.6565 57.9795 33.5632 57.9968C31.6916 58.3446 30.1228 58.1674 29.3572 57.1468C28.8473 56.4671 27.9169 55.7982 27.0763 55.9225C26.1605 56.058 25.0059 56.0165 23.8984 55.3838C22.8334 54.7752 22.135 53.9949 21.6887 53.32C21.248 52.6535 20.2353 52.2964 19.4656 52.511C18.2469 52.8507 16.4728 52.8658 14.8467 51.0732C13.78 49.8973 13.4036 48.8974 13.3492 48.1074C13.2857 47.1832 12.7951 45.6639 12.0823 45.0722C11.2795 44.4058 10.5371 43.3216 10.5371 41.5908C10.5371 39.9468 10.9875 38.7606 11.4953 37.9458C11.968 37.1873 11.9252 35.7896 11.4124 35.0577C10.7373 34.0941 10.1646 32.5853 10.5371 30.3848C11.0179 27.5446 12.316 26.1115 13.1939 25.4457C13.6511 25.0989 13.965 24.515 13.9079 23.944C13.7447 22.3121 13.7588 18.9931 16.0322 16.4844C18.1125 14.1887 20.6258 13.4184 22.0796 13.1599C22.7241 13.0452 23.2558 12.4734 23.3424 11.8245C23.558 10.2084 24.4243 7.41904 27.7773 6.35547C30.7718 5.40565 33.0444 5.9788 34.3433 6.5549C35.0104 6.8508 35.9025 6.64977 36.3189 6.05039C37.2725 4.67764 39.1203 2.58065 41.7246 2.15332Z" fill="#323232"/>
<rect x="31.9354" y="41.9022" width="15.4502" height="29.0212" rx="3.12041" fill="white" stroke="#323232" strokeWidth="0.905983" strokeLinecap="round"/>
<path d="M32.3652 60.6202V51.3438H47.9037C46.7334 56.1007 39.7552 60.877 32.3652 60.6202Z" fill="#7E7E7E" fill-opacity="0.45"/>
<path d="M24.2344 36.4648C27.2806 36.4648 29.6707 38.6867 29.6709 41.334C29.6709 43.9814 27.2807 46.2041 24.2344 46.2041C21.1881 46.204 18.7988 43.9814 18.7988 41.334C18.7991 38.6868 21.1883 36.4649 24.2344 36.4648Z" fill="white" stroke="#323232" strokeWidth="0.905983"/>
<path d="M54.8125 36.4648C51.7663 36.4648 49.3762 38.6867 49.376 41.334C49.376 43.9814 51.7662 46.2041 54.8125 46.2041C57.8587 46.204 60.248 43.9814 60.248 41.334C60.2478 38.6868 57.8586 36.4649 54.8125 36.4648Z" fill="white" stroke="#323232" strokeWidth="0.905983"/>
<path d="M39.6436 17.8945C44.4028 17.8945 48.1247 20.5884 50.6768 24.6016C53.2327 28.621 54.5859 33.9274 54.5859 39.0176C54.5859 44.1025 53.2365 47.9805 50.7324 50.5859C48.2308 53.1886 44.5137 54.5869 39.6436 54.5869C34.7732 54.5869 30.994 53.188 28.4316 50.582C25.8684 47.9749 24.4619 44.0975 24.4619 39.0176C24.4619 33.9312 25.873 28.6257 28.4883 24.6055C31.1002 20.5906 34.8825 17.8946 39.6436 17.8945Z" fill="white" stroke="#323232" strokeWidth="0.905983" strokeLinecap="round"/>
<path d="M39.6365 38.7305C39.1901 40.2733 38.957 41.0794 38.957 42.6845C39.5549 42.9705 40.1265 43.042 41.1087 43.0339" stroke="#323232" strokeWidth="0.905983" strokeLinecap="round" strokeLinejoin="round"/>
<path d="M31.6572 36.9609C32.1238 36.9611 32.5377 37.2135 32.8311 37.6045C33.1245 37.9958 33.3027 38.5316 33.3027 39.1182C33.3027 39.7046 33.1245 40.2396 32.8311 40.6309C32.5376 41.0221 32.124 41.2753 31.6572 41.2754C31.1903 41.2754 30.7759 41.0222 30.4824 40.6309C30.1891 40.2396 30.0108 39.7045 30.0107 39.1182C30.0107 38.5316 30.189 37.9958 30.4824 37.6045C30.7759 37.2133 31.1904 36.9609 31.6572 36.9609Z" fill="#323232" stroke="#323232" strokeWidth="0.226496" strokeLinecap="round"/>
<circle cx="32.3016" cy="38.6131" r="0.566239" fill="white" stroke="#323232" strokeWidth="0.226496"/>
<path d="M47.9648 36.9609C48.4315 36.9611 48.8453 37.2135 49.1387 37.6045C49.4321 37.9958 49.6104 38.5316 49.6104 39.1182C49.6103 39.7046 49.4321 40.2396 49.1387 40.6309C48.8453 41.0221 48.4316 41.2753 47.9648 41.2754C47.4979 41.2754 47.0835 41.0222 46.79 40.6309C46.4967 40.2396 46.3184 39.7045 46.3184 39.1182C46.3184 38.5316 46.4966 37.9958 46.79 37.6045C47.0835 37.2133 47.498 36.9609 47.9648 36.9609Z" fill="#323232" stroke="#323232" strokeWidth="0.226496" strokeLinecap="round"/>
<circle cx="48.6092" cy="38.6131" r="0.452991" fill="white"/>
<path d="M37.8252 46.543C38.5047 47.3735 40.2713 48.5361 41.9021 46.543" stroke="#323232" strokeWidth="0.905983" strokeLinecap="round" strokeLinejoin="round"/>
<g filter="url(#filter0_f_3691_8681)">
<ellipse cx="30.6898" cy="45.4137" rx="2.15171" ry="1.24573" fill="#FC9D80"/>
</g>
<g filter="url(#filter1_f_3691_8681)">
<ellipse cx="48.5834" cy="45.4137" rx="2.15171" ry="1.24573" fill="#FC9D80"/>
</g>
<path d="M43.9403 24.4626C38.9911 34.0662 34.798 36.0733 24.1219 37.0332C23.6689 21.6314 25.5173 19.4352 41.5621 16.9883C54.6182 21.3417 54.6125 25.3942 54.9254 37.0332C47.096 34.802 46.7361 31.6658 43.9403 24.4626Z" fill="#323232"/>
<defs>
<filter id="filter0_f_3691_8681" x="25.8201" y="41.45" width="9.73961" height="7.92809" filterUnits="userSpaceOnUse" color-interpolation-filters="sRGB">
<feFlood flood-opacity="0" result="BackgroundImageFix"/>
<feBlend mode="normal" in="SourceGraphic" in2="BackgroundImageFix" result="shape"/>
<feGaussianBlur stdDeviation="1.35897" result="effect1_foregroundBlur_3691_8681"/>
</filter>
<filter id="filter1_f_3691_8681" x="43.7137" y="41.45" width="9.73961" height="7.92809" filterUnits="userSpaceOnUse" color-interpolation-filters="sRGB">
<feFlood flood-opacity="0" result="BackgroundImageFix"/>
<feBlend mode="normal" in="SourceGraphic" in2="BackgroundImageFix" result="shape"/>
<feGaussianBlur stdDeviation="1.35897" result="effect1_foregroundBlur_3691_8681"/>
</filter>
</defs>
</svg>
